<svg width="13" height="12" viewBox="0 0 13 12" fill="none" xmlns="http://www.w3.org/2000/svg">
<path d="M2.65396 5.22198C3.61018 6.95143 5.15076 8.36309 7.03001 9.2492L8.4909 7.90476C8.67019 7.73976 8.93581 7.68476 9.16823 7.75809C9.91195 7.9842 10.7154 8.10643 11.5389 8.10643C11.9041 8.10643 12.2029 8.38143 12.2029 8.71754V10.8503C12.2029 11.1864 11.9041 11.4614 11.5389 11.4614C5.30349 11.4614 0.250122 6.81087 0.250122 1.07254C0.250122 0.736426 0.548942 0.461426 0.914165 0.461426H3.23832C3.60354 0.461426 3.90236 0.736426 3.90236 1.07254C3.90236 1.83643 4.03517 2.56976 4.28087 3.2542C4.35391 3.46809 4.30079 3.70643 4.11485 3.87754L2.65396 5.22198Z" fill="black"/>
</svg>
