<svg width="16" height="16" viewBox="0 0 16 16" fill="none" xmlns="http://www.w3.org/2000/svg">
<path d="M5.33331 3.83398C5.05998 3.83398 4.83331 3.60732 4.83331 3.33398V1.33398C4.83331 1.06065 5.05998 0.833984 5.33331 0.833984C5.60665 0.833984 5.83331 1.06065 5.83331 1.33398V3.33398C5.83331 3.60732 5.60665 3.83398 5.33331 3.83398Z" fill="#7A5AF8"/>
<path d="M10.6667 3.83398C10.3934 3.83398 10.1667 3.60732 10.1667 3.33398V1.33398C10.1667 1.06065 10.3934 0.833984 10.6667 0.833984C10.94 0.833984 11.1667 1.06065 11.1667 1.33398V3.33398C11.1667 3.60732 10.94 3.83398 10.6667 3.83398Z" fill="#7A5AF8"/>
<path d="M13.6666 6.56055H2.33331C2.05998 6.56055 1.83331 6.33388 1.83331 6.06055C1.83331 5.78721 2.05998 5.56055 2.33331 5.56055H13.6666C13.94 5.56055 14.1666 5.78721 14.1666 6.06055C14.1666 6.33388 13.94 6.56055 13.6666 6.56055Z" fill="#7A5AF8"/>
<path d="M10.6667 15.1673H5.33333C2.9 15.1673 1.5 13.7673 1.5 11.334V5.66732C1.5 3.23398 2.9 1.83398 5.33333 1.83398H10.6667C13.1 1.83398 14.5 3.23398 14.5 5.66732V11.334C14.5 13.7673 13.1 15.1673 10.6667 15.1673ZM5.33333 2.83398C3.42667 2.83398 2.5 3.76065 2.5 5.66732V11.334C2.5 13.2407 3.42667 14.1673 5.33333 14.1673H10.6667C12.5733 14.1673 13.5 13.2407 13.5 11.334V5.66732C13.5 3.76065 12.5733 2.83398 10.6667 2.83398H5.33333Z" fill="#7A5AF8"/>
<path d="M5.66667 9.66733C5.58 9.66733 5.49333 9.64733 5.41333 9.614C5.33333 9.58067 5.26001 9.53399 5.19334 9.47399C5.13334 9.40732 5.08666 9.334 5.05332 9.254C5.01999 9.174 5 9.08733 5 9.00066C5 8.82733 5.07334 8.654 5.19334 8.52733C5.26001 8.46733 5.33333 8.42065 5.41333 8.38732C5.53333 8.33398 5.66667 8.32065 5.80001 8.34732C5.84001 8.35398 5.88 8.36732 5.92 8.38732C5.96 8.40065 6 8.42067 6.04 8.44733C6.07333 8.474 6.10666 8.50066 6.13999 8.52733C6.16666 8.56066 6.19999 8.59399 6.21999 8.62733C6.24666 8.66733 6.26668 8.70732 6.28001 8.74732C6.30001 8.78732 6.31334 8.82732 6.32001 8.86732C6.32667 8.91398 6.33333 8.95399 6.33333 9.00066C6.33333 9.17399 6.25999 9.34732 6.13999 9.47399C6.01333 9.59399 5.84 9.66733 5.66667 9.66733Z" fill="#7A5AF8"/>
<path d="M7.99998 9.66658C7.82665 9.66658 7.65332 9.59324 7.52665 9.47324C7.49999 9.43991 7.47332 9.40658 7.44666 9.37325C7.41999 9.33325 7.39997 9.29325 7.38664 9.25325C7.36664 9.21325 7.35331 9.17326 7.34664 9.13326C7.33997 9.08659 7.33331 9.04658 7.33331 8.99992C7.33331 8.91325 7.3533 8.82658 7.38664 8.74658C7.41997 8.66658 7.46665 8.59325 7.52665 8.52659C7.71332 8.33992 8.01332 8.27991 8.25332 8.38657C8.33998 8.41991 8.40664 8.46659 8.47331 8.52659C8.59331 8.65325 8.66665 8.82658 8.66665 8.99992C8.66665 9.04658 8.65999 9.08659 8.65332 9.13326C8.64665 9.17326 8.63332 9.21325 8.61332 9.25325C8.59999 9.29325 8.57997 9.33325 8.5533 9.37325C8.52664 9.40658 8.49997 9.43991 8.47331 9.47324C8.40664 9.53324 8.33998 9.57992 8.25332 9.61326C8.17332 9.64659 8.08665 9.66658 7.99998 9.66658Z" fill="#7A5AF8"/>
<path d="M5.66667 12.0006C5.58 12.0006 5.49333 11.9806 5.41333 11.9472C5.33333 11.9139 5.26001 11.8672 5.19334 11.8072C5.13334 11.7406 5.08666 11.6739 5.05332 11.5872C5.01999 11.5072 5 11.4206 5 11.3339C5 11.1606 5.07334 10.9872 5.19334 10.8606C5.26001 10.8006 5.33333 10.7539 5.41333 10.7206C5.66 10.6139 5.95333 10.6739 6.13999 10.8606C6.16666 10.8939 6.19999 10.9272 6.21999 10.9606C6.24666 11.0006 6.26668 11.0406 6.28001 11.0806C6.30001 11.1206 6.31334 11.1606 6.32001 11.2072C6.32667 11.2472 6.33333 11.2939 6.33333 11.3339C6.33333 11.5072 6.25999 11.6806 6.13999 11.8072C6.01333 11.9272 5.84 12.0006 5.66667 12.0006Z" fill="#7A5AF8"/>
</svg>
