<svg width="16" height="16" viewBox="0 0 16 16" fill="none" xmlns="http://www.w3.org/2000/svg">
<path d="M8.00004 1.33398C4.32671 1.33398 1.33337 4.32732 1.33337 8.00065C1.33337 11.674 4.32671 14.6673 8.00004 14.6673C11.6734 14.6673 14.6667 11.674 14.6667 8.00065C14.6667 4.32732 11.6734 1.33398 8.00004 1.33398ZM10.9 10.3807C10.8067 10.5407 10.64 10.6273 10.4667 10.6273C10.38 10.6273 10.2934 10.6073 10.2134 10.554L8.14671 9.32065C7.63337 9.01398 7.25337 8.34065 7.25337 7.74732V5.01398C7.25337 4.74065 7.48004 4.51398 7.75337 4.51398C8.02671 4.51398 8.25337 4.74065 8.25337 5.01398V7.74732C8.25337 7.98732 8.45337 8.34065 8.66004 8.46065L10.7267 9.69398C10.9667 9.83398 11.0467 10.1407 10.9 10.3807Z" fill="#D0D5DD"/>
</svg>
